<mxfile host="65bd71144e" modified="2020-11-10T19:50:13.225Z" agent="5.0 (Windows NT 10.0; Win64; x64) AppleWebKit/537.36 (KHTML, like Gecko) Code/1.50.1 Chrome/83.0.4103.122 Electron/9.2.1 Safari/537.36" etag="A9T9TlRyh2kRouxV3_y2" version="13.6.5">
    <diagram id="C5RBs43oDa-KdzZeNtuy" name="Page-1">
        <mxGraphModel dx="551" dy="792" grid="1" gridSize="10" guides="1" tooltips="1" connect="1" arrows="1" fold="1" page="1" pageScale="1" pageWidth="827" pageHeight="1169" math="0" shadow="0">
            <root>
                <mxCell id="WIyWlLk6GJQsqaUBKTNV-0"/>
                <mxCell id="WIyWlLk6GJQsqaUBKTNV-1" parent="WIyWlLk6GJQsqaUBKTNV-0"/>
                <mxCell id="PxDiyynaSw7YjZVZo8UO-5" style="edgeStyle=orthogonalEdgeStyle;rounded=0;orthogonalLoop=1;jettySize=auto;html=1;exitX=0.5;exitY=0;exitDx=0;exitDy=0;entryX=0.5;entryY=1;entryDx=0;entryDy=0;" parent="WIyWlLk6GJQsqaUBKTNV-1" source="PxDiyynaSw7YjZVZo8UO-0" target="CKv4PGzBGWJo2KeHRYD0-7" edge="1">
                    <mxGeometry relative="1" as="geometry"/>
                </mxCell>
                <mxCell id="CKv4PGzBGWJo2KeHRYD0-7" value="SchedulingAlgorithm" style="swimlane;fontStyle=3;align=center;verticalAlign=top;childLayout=stackLayout;horizontal=1;startSize=26;horizontalStack=0;resizeParent=1;resizeParentMax=0;resizeLast=0;collapsible=1;marginBottom=0;" parent="WIyWlLk6GJQsqaUBKTNV-1" vertex="1">
                    <mxGeometry x="100" y="110" width="290" height="218" as="geometry"/>
                </mxCell>
                <mxCell id="CKv4PGzBGWJo2KeHRYD0-8" value="# problem: ProblemInstance*&#10;# processorsTimes: uint32_t []&#10;# processorsArray: vector&lt;uint32_t&gt; [] &#10;&#10;" style="text;strokeColor=none;fillColor=none;align=left;verticalAlign=top;spacingLeft=4;spacingRight=4;overflow=hidden;rotatable=0;points=[[0,0.5],[1,0.5]];portConstraint=eastwest;" parent="CKv4PGzBGWJo2KeHRYD0-7" vertex="1">
                    <mxGeometry y="26" width="290" height="84" as="geometry"/>
                </mxCell>
                <mxCell id="CKv4PGzBGWJo2KeHRYD0-9" value="" style="line;strokeWidth=1;fillColor=none;align=left;verticalAlign=middle;spacingTop=-1;spacingLeft=3;spacingRight=3;rotatable=0;labelPosition=right;points=[];portConstraint=eastwest;" parent="CKv4PGzBGWJo2KeHRYD0-7" vertex="1">
                    <mxGeometry y="110" width="290" height="8" as="geometry"/>
                </mxCell>
                <mxCell id="CKv4PGzBGWJo2KeHRYD0-10" value="+ solve()=0&#10;+SchedulingAlgorithm(in:ProblemInstance*)&#10;+printSolution()&#10;+cMax():uint32_t&#10;&#10;" style="text;strokeColor=none;fillColor=none;align=left;verticalAlign=top;spacingLeft=4;spacingRight=4;overflow=hidden;rotatable=0;points=[[0,0.5],[1,0.5]];portConstraint=eastwest;fontStyle=0" parent="CKv4PGzBGWJo2KeHRYD0-7" vertex="1">
                    <mxGeometry y="118" width="290" height="100" as="geometry"/>
                </mxCell>
                <mxCell id="CKv4PGzBGWJo2KeHRYD0-11" value="ProblemInstance&#10;" style="swimlane;fontStyle=1;align=center;verticalAlign=top;childLayout=stackLayout;horizontal=1;startSize=26;horizontalStack=0;resizeParent=1;resizeParentMax=0;resizeLast=0;collapsible=1;marginBottom=0;" parent="WIyWlLk6GJQsqaUBKTNV-1" vertex="1">
                    <mxGeometry x="560" y="200" width="240" height="290" as="geometry">
                        <mxRectangle x="190" y="200" width="100" height="26" as="alternateBounds"/>
                    </mxGeometry>
                </mxCell>
                <mxCell id="CKv4PGzBGWJo2KeHRYD0-12" value="+ numOfTasks: uint32_t&#10;+ numOfProcessors: uint32_t&#10;+ tasksArray: uint32_t [ ]" style="text;strokeColor=none;fillColor=none;align=left;verticalAlign=top;spacingLeft=4;spacingRight=4;overflow=hidden;rotatable=0;points=[[0,0.5],[1,0.5]];portConstraint=eastwest;" parent="CKv4PGzBGWJo2KeHRYD0-11" vertex="1">
                    <mxGeometry y="26" width="240" height="84" as="geometry"/>
                </mxCell>
                <mxCell id="CKv4PGzBGWJo2KeHRYD0-13" value="" style="line;strokeWidth=1;fillColor=none;align=left;verticalAlign=middle;spacingTop=-1;spacingLeft=3;spacingRight=3;rotatable=0;labelPosition=right;points=[];portConstraint=eastwest;" parent="CKv4PGzBGWJo2KeHRYD0-11" vertex="1">
                    <mxGeometry y="110" width="240" height="8" as="geometry"/>
                </mxCell>
                <mxCell id="CKv4PGzBGWJo2KeHRYD0-14" value="+ ProblemInstance(uint32_t numOfTasks,&#10;uint32_t numOfProcessors,&#10;uint32_t maxTaskTime,&#10;uint32_t minTaskTime)&#10;+ generateTasksArray():void&#10;+ setTaskTime(uint32_t maxTaskTime,&#10;uint32_t minTaskTime):bool&#10;" style="text;strokeColor=none;fillColor=none;align=left;verticalAlign=top;spacingLeft=4;spacingRight=4;overflow=hidden;rotatable=0;points=[[0,0.5],[1,0.5]];portConstraint=eastwest;" parent="CKv4PGzBGWJo2KeHRYD0-11" vertex="1">
                    <mxGeometry y="118" width="240" height="172" as="geometry"/>
                </mxCell>
                <mxCell id="PxDiyynaSw7YjZVZo8UO-0" value="Greedy" style="swimlane;fontStyle=3;align=center;verticalAlign=top;childLayout=stackLayout;horizontal=1;startSize=26;horizontalStack=0;resizeParent=1;resizeParentMax=0;resizeLast=0;collapsible=1;marginBottom=0;" parent="WIyWlLk6GJQsqaUBKTNV-1" vertex="1">
                    <mxGeometry x="20" y="400" width="180" height="134" as="geometry"/>
                </mxCell>
                <mxCell id="PxDiyynaSw7YjZVZo8UO-2" value="" style="line;strokeWidth=1;fillColor=none;align=left;verticalAlign=middle;spacingTop=-1;spacingLeft=3;spacingRight=3;rotatable=0;labelPosition=right;points=[];portConstraint=eastwest;" parent="PxDiyynaSw7YjZVZo8UO-0" vertex="1">
                    <mxGeometry y="26" width="180" height="8" as="geometry"/>
                </mxCell>
                <mxCell id="PxDiyynaSw7YjZVZo8UO-3" value="+Greedy(in:ProblemInstance*)" style="text;strokeColor=none;fillColor=none;align=left;verticalAlign=top;spacingLeft=4;spacingRight=4;overflow=hidden;rotatable=0;points=[[0,0.5],[1,0.5]];portConstraint=eastwest;fontStyle=0" parent="PxDiyynaSw7YjZVZo8UO-0" vertex="1">
                    <mxGeometry y="34" width="180" height="100" as="geometry"/>
                </mxCell>
                <mxCell id="8" value="Genetic - K" style="swimlane;fontStyle=3;align=center;verticalAlign=top;childLayout=stackLayout;horizontal=1;startSize=26;horizontalStack=0;resizeParent=1;resizeParentMax=0;resizeLast=0;collapsible=1;marginBottom=0;" parent="WIyWlLk6GJQsqaUBKTNV-1" vertex="1">
                    <mxGeometry x="242" y="401" width="290" height="420" as="geometry"/>
                </mxCell>
                <mxCell id="9" value="- population: Individual []&#10;- reproductionArray: Individual [] &#10;&#10;- populationSize: uint32_t&#10;- childrenNumber: uint32_t&#10;- reproductionRatio: uint32_t&#10;- fightGroupSize: uint32_t        &#10;- tourneyRatio: uint32_t&#10;- mutationChance: uint32_t&#10;- mutationRatio: uint32_t&#10;- method : uint32_t&#10;- stopCondition: uint32_t [_,_]&#10;- reproductionGroupSize: uint32_t // parzysta" style="text;strokeColor=none;fillColor=none;align=left;verticalAlign=top;spacingLeft=4;spacingRight=4;overflow=hidden;rotatable=0;points=[[0,0.5],[1,0.5]];portConstraint=eastwest;" parent="8" vertex="1">
                    <mxGeometry y="26" width="290" height="204" as="geometry"/>
                </mxCell>
                <mxCell id="10" value="" style="line;strokeWidth=1;fillColor=none;align=left;verticalAlign=middle;spacingTop=-1;spacingLeft=3;spacingRight=3;rotatable=0;labelPosition=right;points=[];portConstraint=eastwest;" parent="8" vertex="1">
                    <mxGeometry y="230" width="290" height="8" as="geometry"/>
                </mxCell>
                <mxCell id="11" value="+ Genetic(populationSize, childrenNumber,&#10;reproductionRatio, turneyRatio, mutationChance,&#10;mutationRatio, method , stopCondition) - P&#10;+ solve() - K &#10;+ setMethod(uint32_t method) - P&#10;+ generatePopulation() - P&#10;- adjustParameters() - P&#10;- tourney() - K&#10;- rank() - K&#10;- crossover() - P" style="text;strokeColor=none;fillColor=none;align=left;verticalAlign=top;spacingLeft=4;spacingRight=4;overflow=hidden;rotatable=0;points=[[0,0.5],[1,0.5]];portConstraint=eastwest;fontStyle=0" parent="8" vertex="1">
                    <mxGeometry y="238" width="290" height="182" as="geometry"/>
                </mxCell>
                <mxCell id="12" value="" style="endArrow=classic;html=1;exitX=0.5;exitY=0;exitDx=0;exitDy=0;entryX=0.517;entryY=1.04;entryDx=0;entryDy=0;entryPerimeter=0;" parent="WIyWlLk6GJQsqaUBKTNV-1" source="8" target="CKv4PGzBGWJo2KeHRYD0-10" edge="1">
                    <mxGeometry width="50" height="50" relative="1" as="geometry">
                        <mxPoint x="389" y="378" as="sourcePoint"/>
                        <mxPoint x="439" y="328" as="targetPoint"/>
                    </mxGeometry>
                </mxCell>
                <mxCell id="13" value="Individual - K" style="swimlane;fontStyle=3;align=center;verticalAlign=top;childLayout=stackLayout;horizontal=1;startSize=26;horizontalStack=0;resizeParent=1;resizeParentMax=0;resizeLast=0;collapsible=1;marginBottom=0;" parent="WIyWlLk6GJQsqaUBKTNV-1" vertex="1">
                    <mxGeometry x="570" y="530" width="130" height="150" as="geometry"/>
                </mxCell>
                <mxCell id="14" value="+ fitness: uint32_t&#10;+ genes: uint32_t []&#10;" style="text;strokeColor=none;fillColor=none;align=left;verticalAlign=top;spacingLeft=4;spacingRight=4;overflow=hidden;rotatable=0;points=[[0,0.5],[1,0.5]];portConstraint=eastwest;" parent="13" vertex="1">
                    <mxGeometry y="26" width="130" height="84" as="geometry"/>
                </mxCell>
                <mxCell id="15" value="" style="line;strokeWidth=1;fillColor=none;align=left;verticalAlign=middle;spacingTop=-1;spacingLeft=3;spacingRight=3;rotatable=0;labelPosition=right;points=[];portConstraint=eastwest;" parent="13" vertex="1">
                    <mxGeometry y="110" width="130" height="8" as="geometry"/>
                </mxCell>
                <mxCell id="16" value="+ findFitness()&#10;&#10;" style="text;strokeColor=none;fillColor=none;align=left;verticalAlign=top;spacingLeft=4;spacingRight=4;overflow=hidden;rotatable=0;points=[[0,0.5],[1,0.5]];portConstraint=eastwest;fontStyle=0" parent="13" vertex="1">
                    <mxGeometry y="118" width="130" height="32" as="geometry"/>
                </mxCell>
                <mxCell id="17" value="" style="shape=umlActor;verticalLabelPosition=bottom;verticalAlign=top;html=1;outlineConnect=0;" parent="WIyWlLk6GJQsqaUBKTNV-1" vertex="1">
                    <mxGeometry x="678" y="537" width="8" height="15" as="geometry"/>
                </mxCell>
            </root>
        </mxGraphModel>
    </diagram>
</mxfile>